<svg id="visual" viewBox="0 0 960 540" width="960" height="540" xmlns="http://www.w3.org/2000/svg"
    xmlns:xlink="http://www.w3.org/1999/xlink" version="1.1">
    <rect x="0" y="0" width="960" height="540" fill-opacity="0"></rect>
    <path
        d="M0 390L20 373.3C40 356.7 80 323.3 120 305.8C160 288.3 200 286.7 240 297C280 307.3 320 329.7 360 340.2C400 350.7 440 349.3 480 349C520 348.7 560 349.3 600 342.8C640 336.3 680 322.7 720 319.7C760 316.7 800 324.3 840 323.5C880 322.7 920 313.3 940 308.7L960 304L960 541L940 541C920 541 880 541 840 541C800 541 760 541 720 541C680 541 640 541 600 541C560 541 520 541 480 541C440 541 400 541 360 541C320 541 280 541 240 541C200 541 160 541 120 541C80 541 40 541 20 541L0 541Z"
        fill="#181828"></path>
    <path
        d="M0 335L20 340.8C40 346.7 80 358.3 120 363.7C160 369 200 368 240 371.3C280 374.7 320 382.3 360 383.8C400 385.3 440 380.7 480 370C520 359.3 560 342.7 600 337.7C640 332.7 680 339.3 720 344.2C760 349 800 352 840 348C880 344 920 333 940 327.5L960 322L960 541L940 541C920 541 880 541 840 541C800 541 760 541 720 541C680 541 640 541 600 541C560 541 520 541 480 541C440 541 400 541 360 541C320 541 280 541 240 541C200 541 160 541 120 541C80 541 40 541 20 541L0 541Z"
        fill="#26274f"></path>
    <path
        d="M0 438L20 427.8C40 417.7 80 397.3 120 387.5C160 377.7 200 378.3 240 382.3C280 386.3 320 393.7 360 391.7C400 389.7 440 378.3 480 376.3C520 374.3 560 381.7 600 386.5C640 391.3 680 393.7 720 398.7C760 403.7 800 411.3 840 404.7C880 398 920 377 940 366.5L960 356L960 541L940 541C920 541 880 541 840 541C800 541 760 541 720 541C680 541 640 541 600 541C560 541 520 541 480 541C440 541 400 541 360 541C320 541 280 541 240 541C200 541 160 541 120 541C80 541 40 541 20 541L0 541Z"
        fill="#373679"></path>
    <path
        d="M0 423L20 418.5C40 414 80 405 120 412C160 419 200 442 240 444.5C280 447 320 429 360 420.5C400 412 440 413 480 410.2C520 407.3 560 400.7 600 397.2C640 393.7 680 393.3 720 394C760 394.7 800 396.3 840 405.7C880 415 920 432 940 440.5L960 449L960 541L940 541C920 541 880 541 840 541C800 541 760 541 720 541C680 541 640 541 600 541C560 541 520 541 480 541C440 541 400 541 360 541C320 541 280 541 240 541C200 541 160 541 120 541C80 541 40 541 20 541L0 541Z"
        fill="#4c44a5"></path>
    <path
        d="M0 480L20 475.7C40 471.3 80 462.7 120 464.8C160 467 200 480 240 483.2C280 486.3 320 479.7 360 475.7C400 471.7 440 470.3 480 467.3C520 464.3 560 459.7 600 457.5C640 455.3 680 455.7 720 453.8C760 452 800 448 840 452.5C880 457 920 470 940 476.5L960 483L960 541L940 541C920 541 880 541 840 541C800 541 760 541 720 541C680 541 640 541 600 541C560 541 520 541 480 541C440 541 400 541 360 541C320 541 280 541 240 541C200 541 160 541 120 541C80 541 40 541 20 541L0 541Z"
        fill="#6751d2"></path>
    <path
        d="M0 501L20 503.2C40 505.3 80 509.7 120 506.8C160 504 200 494 240 488.7C280 483.3 320 482.7 360 483.2C400 483.7 440 485.3 480 489.3C520 493.3 560 499.7 600 499.5C640 499.3 680 492.7 720 490.2C760 487.7 800 489.3 840 491C880 492.7 920 494.3 940 495.2L960 496L960 541L940 541C920 541 880 541 840 541C800 541 760 541 720 541C680 541 640 541 600 541C560 541 520 541 480 541C440 541 400 541 360 541C320 541 280 541 240 541C200 541 160 541 120 541C80 541 40 541 20 541L0 541Z"
        fill="#865dff"></path>
</svg>